<mxfile host="app.diagrams.net" modified="2024-04-24T07:37:57.355Z" agent="Mozilla/5.0 (Windows NT 10.0; Win64; x64; rv:125.0) Gecko/20100101 Firefox/125.0" version="24.2.8" etag="SEs1TI6h6mFq1pc3DvL9" type="github">
  <diagram name="Seite-1" id="FWtwbFQGc38K1lI97Zba">
    <mxGraphModel>
      <root>
        <mxCell id="0" />
        <mxCell id="1" parent="0" />
      </root>
    </mxGraphModel>
  </diagram>
</mxfile>
